<svg width="24" height="24" viewBox="0 0 24 24" fill="none" xmlns="http://www.w3.org/2000/svg">
<path d="M13.4804 19.9083C13.4956 19.9235 13.9597 20.0399 14.5117 20.1668C15.0639 20.2937 15.5216 20.3781 15.5289 20.3545C15.5362 20.3309 15.5933 19.9477 15.6558 19.5029C15.7813 18.6098 16.0851 17.567 16.4097 16.9148C17.4217 14.8823 19.2372 13.5364 21.4393 13.1866L22 13.0975L22 12.1997L22 11.3017L21.4918 11.2164C18.162 10.6578 15.9912 8.16812 15.5851 4.44229C15.5586 4.199 15.5269 4 15.5147 4C15.4024 4 13.5416 4.44845 13.5064 4.48397C13.481 4.50966 13.4999 4.73774 13.5486 4.99073C14.087 7.79214 15.6287 10.0717 17.6294 11.0249L18.1094 11.2535L8.24046 11.2714L2 11.2828L2 13.1L8.25651 13.1113L18.1021 13.1293L17.4963 13.4363C15.9244 14.2326 14.68 15.7947 13.9472 17.8914C13.7383 18.4888 13.4232 19.8506 13.4804 19.9083Z" fill="#DAFC00"/>
</svg>
